<svg width="21" height="20" viewBox="0 0 21 20" fill="none" xmlns="http://www.w3.org/2000/svg">
<g clip-path="url(#clip0_19_3697)">
<path d="M19.1106 3.3975C18.8762 3.1162 18.5827 2.88996 18.2511 2.73485C17.9194 2.57973 17.5576 2.49955 17.1914 2.5H3.71811L3.68311 2.2075C3.61148 1.59951 3.31926 1.03894 2.86185 0.632065C2.40443 0.225186 1.81363 0.000284828 1.20144 0L1.01644 0C0.795425 0 0.583463 0.0877974 0.427183 0.244078C0.270903 0.400358 0.183105 0.61232 0.183105 0.833333C0.183105 1.05435 0.270903 1.26631 0.427183 1.42259C0.583463 1.57887 0.795425 1.66667 1.01644 1.66667H1.20144C1.40555 1.66669 1.60255 1.74163 1.75508 1.87726C1.90761 2.0129 2.00506 2.19979 2.02894 2.4025L3.17561 12.1525C3.29465 13.1665 3.78184 14.1015 4.5447 14.78C5.30755 15.4585 6.29298 15.8334 7.31394 15.8333H16.0164C16.2375 15.8333 16.4494 15.7455 16.6057 15.5893C16.762 15.433 16.8498 15.221 16.8498 15C16.8498 14.779 16.762 14.567 16.6057 14.4107C16.4494 14.2545 16.2375 14.1667 16.0164 14.1667H7.31394C6.79815 14.1652 6.29544 14.0043 5.87472 13.7059C5.454 13.4075 5.13587 12.9863 4.96394 12.5H14.8973C15.8742 12.5001 16.8201 12.1569 17.5696 11.5304C18.3192 10.9039 18.8248 10.0339 18.9981 9.0725L19.6523 5.44417C19.7176 5.08417 19.7029 4.71422 19.6093 4.36053C19.5157 4.00684 19.3454 3.67806 19.1106 3.3975ZM18.0164 5.14833L17.3614 8.77667C17.2574 9.35417 16.9535 9.87666 16.503 10.2527C16.0525 10.6287 15.4841 10.8342 14.8973 10.8333H4.69894L3.91477 4.16667H17.1914C17.3139 4.16594 17.4349 4.19218 17.5461 4.24355C17.6572 4.29491 17.7556 4.37012 17.8344 4.46384C17.9131 4.55756 17.9703 4.66748 18.0017 4.78578C18.0332 4.90409 18.0382 5.02787 18.0164 5.14833Z" fill="#999DAA"/>
<path d="M6.01676 20.0003C6.93723 20.0003 7.68342 19.2541 7.68342 18.3337C7.68342 17.4132 6.93723 16.667 6.01676 16.667C5.09629 16.667 4.3501 17.4132 4.3501 18.3337C4.3501 19.2541 5.09629 20.0003 6.01676 20.0003Z" fill="#999DAA"/>
<path d="M14.3498 20.0003C15.2702 20.0003 16.0164 19.2541 16.0164 18.3337C16.0164 17.4132 15.2702 16.667 14.3498 16.667C13.4293 16.667 12.6831 17.4132 12.6831 18.3337C12.6831 19.2541 13.4293 20.0003 14.3498 20.0003Z" fill="#999DAA"/>
</g>
<defs>
<clipPath id="clip0_19_3697">
<rect width="20" height="20" fill="white" transform="translate(0.183105)"/>
</clipPath>
</defs>
</svg>
